<svg width="207" height="121" viewBox="0 0 207 121" fill="none" xmlns="http://www.w3.org/2000/svg">
    <path
        d="M163.259 87.2727H131V0H163.216C172.108 0 179.764 1.74716 186.185 5.24148C192.634 8.70739 197.605 13.7074 201.099 20.2415C204.594 26.7472 206.341 34.5312 206.341 43.5938C206.341 52.6847 204.594 60.4972 201.099 67.0312C197.634 73.5653 192.676 78.5795 186.227 82.0739C179.778 85.5398 172.122 87.2727 163.259 87.2727ZM152.094 69.2898H162.449C167.335 69.2898 171.469 68.4659 174.849 66.8182C178.259 65.142 180.83 62.429 182.562 58.679C184.324 54.9006 185.205 49.8722 185.205 43.5938C185.205 37.3153 184.324 32.3153 182.562 28.5938C180.801 24.8438 178.202 22.1449 174.764 20.4972C171.355 18.821 167.151 17.983 162.151 17.983H152.094V69.2898Z"
        fill="#00A1E3" />
    <path d="M20.5 65V0H46.5L69.5 55.5L92 0H118V87H97.5V32.5L76 87H63L41 32.5V65H20.5Z" fill="#00A1E3" />
    <path d="M20.5 77H41V99.8148H61.5L30.75 121L0 99H20.5V77Z" fill="#00A1E3" />
</svg>